# xmcd
#
# Track frame offsets: 
#        150
#        20402
#        36602
#        50503
#        72893
#        94532
#        113882
#        134318
#        152147
#        166409
#        184962
#        204968
#
# Disc length: 2971 seconds
#
# Revision: 0
# Processed by: cddbd v1.5.2PL0 Copyright (c) Steve Scherf et al.
# Submitted via: ExactAudioCopy v0.95b3
#
DISCID=a40b990c
DTITLE=Floyd Taylor - You Still Got It
DYEAR=2007
DGENRE=Blues
TTITLE0=You've Still Got It
TTITLE1=If I Could Do It Over
TTITLE2=(You're Gonna) Get Us Killed
TTITLE3=What If He Knew
TTITLE4=Sothern Soul Party
TTITLE5=I Miss My Daddy
TTITLE6=No One Should Be Lonely
TTITLE7=I Forgot To Remember
TTITLE8=Woman
TTITLE9=I'm Hooked On These Blues
TTITLE10=If You Catch Me Sleepin
TTITLE11=Sweet Love
EXTD=
EXTT0=
EXTT1=
EXTT2=
EXTT3=
EXTT4=
EXTT5=
EXTT6=
EXTT7=
EXTT8=
EXTT9=
EXTT10=
EXTT11=
PLAYORDER=
